<svg width="24" height="24" viewBox="0 0 24 24" fill="none" xmlns="http://www.w3.org/2000/svg">
<path opacity="0.4" d="M16.3399 1.99979H7.66989C4.27989 1.99979 1.99989 4.37979 1.99989 7.91979V16.0898C1.99989 19.6198 4.27989 21.9998 7.66989 21.9998H16.3399C19.7299 21.9998 21.9999 19.6198 21.9999 16.0898V7.91979C21.9999 4.37979 19.7299 1.99979 16.3399 1.99979Z" fill="white"/>
<path d="M15.0156 13.7703L13.2366 11.9923L15.0146 10.2143C15.3566 9.87329 15.3566 9.31829 15.0146 8.97729C14.6726 8.63329 14.1196 8.63429 13.7776 8.97629L11.9986 10.7543L10.2196 8.97429C9.8776 8.63229 9.3236 8.63429 8.9816 8.97429C8.6406 9.31629 8.6406 9.87129 8.9816 10.2123L10.7616 11.9923L8.9856 13.7673C8.6436 14.1093 8.6436 14.6643 8.9856 15.0043C9.1566 15.1763 9.3796 15.2613 9.6036 15.2613C9.8286 15.2613 10.0516 15.1763 10.2226 15.0053L11.9986 13.2293L13.7786 15.0083C13.9496 15.1793 14.1726 15.2643 14.3966 15.2643C14.6206 15.2643 14.8446 15.1783 15.0156 15.0083C15.3576 14.6663 15.3576 14.1123 15.0156 13.7703Z" fill="white"/>
</svg>
