<svg width="28" height="28" viewBox="0 0 28 28" fill="none" xmlns="http://www.w3.org/2000/svg">
<path opacity="0.4" d="M18.7548 2.33337H22.7051C24.341 2.33337 25.6667 3.6702 25.6667 5.32V9.30365C25.6667 10.9534 24.341 12.2903 22.7051 12.2903H18.7548C17.1188 12.2903 15.7932 10.9534 15.7932 9.30365V5.32C15.7932 3.6702 17.1188 2.33337 18.7548 2.33337Z" fill="white"/>
<path fill-rule="evenodd" clip-rule="evenodd" d="M5.29492 2.33337H9.24522C10.8812 2.33337 12.2068 3.6702 12.2068 5.32V9.30365C12.2068 10.9534 10.8812 12.2903 9.24522 12.2903H5.29492C3.65894 12.2903 2.33331 10.9534 2.33331 9.30365V5.32C2.33331 3.6702 3.65894 2.33337 5.29492 2.33337ZM5.29492 15.7098H9.24522C10.8812 15.7098 12.2068 17.0466 12.2068 18.6964V22.6801C12.2068 24.3288 10.8812 25.6667 9.24522 25.6667H5.29492C3.65894 25.6667 2.33331 24.3288 2.33331 22.6801V18.6964C2.33331 17.0466 3.65894 15.7098 5.29492 15.7098ZM22.705 15.7098H18.7547C17.1188 15.7098 15.7931 17.0466 15.7931 18.6964V22.6801C15.7931 24.3288 17.1188 25.6667 18.7547 25.6667H22.705C24.341 25.6667 25.6666 24.3288 25.6666 22.6801V18.6964C25.6666 17.0466 24.341 15.7098 22.705 15.7098Z" fill="white"/>
</svg>
