<svg width="24" height="24" viewBox="0 0 24 24" fill="none" xmlns="http://www.w3.org/2000/svg">
<path opacity="0.4" d="M16.7548 0.333374H20.7051C22.341 0.333374 23.6667 1.6702 23.6667 3.32V7.30365C23.6667 8.95345 22.341 10.2903 20.7051 10.2903H16.7548C15.1188 10.2903 13.7932 8.95345 13.7932 7.30365V3.32C13.7932 1.6702 15.1188 0.333374 16.7548 0.333374Z" fill="white"/>
<path fill-rule="evenodd" clip-rule="evenodd" d="M3.29492 0.333374H7.24522C8.8812 0.333374 10.2068 1.6702 10.2068 3.32V7.30365C10.2068 8.95345 8.8812 10.2903 7.24522 10.2903H3.29492C1.65894 10.2903 0.333313 8.95345 0.333313 7.30365V3.32C0.333313 1.6702 1.65894 0.333374 3.29492 0.333374ZM3.29492 13.7098H7.24522C8.8812 13.7098 10.2068 15.0466 10.2068 16.6964V20.6801C10.2068 22.3288 8.8812 23.6667 7.24522 23.6667H3.29492C1.65894 23.6667 0.333313 22.3288 0.333313 20.6801V16.6964C0.333313 15.0466 1.65894 13.7098 3.29492 13.7098ZM20.705 13.7098H16.7547C15.1188 13.7098 13.7931 15.0466 13.7931 16.6964V20.6801C13.7931 22.3288 15.1188 23.6667 16.7547 23.6667H20.705C22.341 23.6667 23.6666 22.3288 23.6666 20.6801V16.6964C23.6666 15.0466 22.341 13.7098 20.705 13.7098Z" fill="white"/>
</svg>
