<svg width="230" height="152" viewBox="0 0 230 152" fill="none" xmlns="http://www.w3.org/2000/svg">
<path d="M46.409 65L50.5931 66.3593L56.4024 66.6102L57 72.2339L47.4529 73C47.4529 73 45.0683 65.5313 46.409 65Z" fill="#575A89"/>
<path d="M105 149C142.003 149 172 119.675 172 83.5C172 47.3253 142.003 18 105 18C67.9969 18 38 47.3253 38 83.5C38 119.675 67.9969 149 105 149Z" fill="#F2F2F2"/>
<path d="M196.256 32.204L189.592 40.8083C189.233 44.5143 188.723 48.6556 188 53L198.949 40.6645L199 40.88C198.377 37.565 197.435 34.5576 196.195 32L196.256 32.204Z" fill="#D0021B"/>
<path d="M190 40L196 32.3157C194.69 29.6858 193.032 27.5851 191.05 26.2065C190.947 26.1348 190.843 26.0672 190.739 26C190.741 26.9341 190.716 32.4169 190 40Z" fill="#D0021B"/>
<path d="M197.902 69.1308L197.918 69.3682C198.34 67.914 198.701 66.4579 199 65L181.058 75.6151L181.046 75.5069C180.707 76.3537 180.358 77.1848 180 78L197.902 69.1308Z" fill="#D0021B"/>
<path d="M199.904 55.5593L199.939 55.7842C200.14 51.837 199.841 47.8813 199.049 44L186.712 55.9534C185.944 59.8223 185.04 63.5045 184 67L199.904 55.5593Z" fill="#D0021B"/>
<path d="M169.629 36C167.836 38.2436 166.285 40.6546 165 43.1962L184.98 65C185.803 61.9418 186.466 58.9763 187 56.2107L169.523 36.216L169.629 36Z" fill="#D0021B"/>
<path d="M163 45.7443L163.1 45.5286L183.374 67C183.592 66.2648 183.801 65.5336 184 64.8063L164.185 43.2149L164.287 43C163.839 43.8834 163.41 44.7982 163 45.7443Z" fill="#D0021B"/>
<path d="M198.958 64.2196L198.984 64.4352C199.52 61.9789 199.86 59.4949 200 57L183.373 67.7724C182.643 69.9343 181.852 72.0102 181 74L198.958 64.2196Z" fill="#D0021B"/>
<path d="M175.917 86.4121C173.285 90.6034 170.303 94.1467 167 97C170.653 95.6517 185.372 89.7118 193 79L175.917 86.4121Z" fill="#D0021B"/>
<path d="M160.363 58C160.068 60.3887 159.953 62.7924 160.017 65.1949L160.141 64.9795L176.087 85C177.551 82.6688 178.858 80.2611 180 77.7899L160.363 58Z" fill="#D0021B"/>
<path d="M188.952 43C189.892 34.5363 189.841 28.6387 189.84 28.5541L190 28.4947C186.228 26.4926 182.06 26.5623 178 28.3417L188.952 43Z" fill="#D0021B"/>
<path d="M180.021 77.5906C179.909 77.8318 179.798 78.0745 179.683 78.3128C178.594 80.5993 177.364 82.8317 176 85L193.814 77.5345L193.822 77.7576C195.218 75.8296 196.332 73.753 197.137 71.5775C197.449 70.7215 197.737 69.8623 198 69L180.021 77.5906Z" fill="#D0021B"/>
<path d="M187.298 56C188.07 51.8625 188.615 47.9206 189 44.3926L178.262 29.2073L178.375 29C175.451 30.399 172.591 32.7756 170 35.9724L187.298 56Z" fill="#D0021B"/>
<path d="M176 85.676L160 65C160.386 79.9876 165.941 95.9828 166.299 97C170.142 93.8303 173.339 89.9333 176 85.676Z" fill="#D0021B"/>
<path d="M179.642 78L179.658 77.9911C180.945 74.6246 182.061 71.1868 183 67.6927L163.761 45C163.241 46.3539 162.758 47.7644 162.312 49.2313C161.691 51.3354 161.252 53.4952 161 55.6841L179.642 78Z" fill="#D0021B"/>
<path d="M210.926 97.1713L200.542 98.887C198.043 101.123 195.166 103.558 192 106L207.984 104.372L207.896 104.545C209.388 101.982 210.445 99.4306 211 97L210.926 97.1713Z" fill="#D0021B"/>
<path d="M202 100L211.609 98.263C212.18 95.4131 212.141 92.7259 211.393 90.3633C211.355 90.2403 211.313 90.12 211.27 90C210.693 90.7013 207.276 94.7948 202 100Z" fill="#D0021B"/>
<path d="M191.386 124.85L191.238 125C192.536 124.319 193.79 123.61 195 122.871L174.404 121.07L174.468 121C173.642 121.354 172.819 121.694 172 122.02L191.386 124.85Z" fill="#D0021B"/>
<path d="M201.854 116.798L201.729 117C204.546 113.961 206.986 110.604 209 107L191.522 108.912C188.326 111.536 185.152 113.925 182 116.08L201.854 116.798Z" fill="#D0021B"/>
<path d="M192 84C188.905 84.6011 185.889 85.4637 183 86.5747L183.905 114C186.782 112.245 189.46 110.466 191.887 108.758L191.758 84.0967L192 84Z" fill="#D0021B"/>
<path d="M180 86.3255L180.193 86.2208L181.3 115C181.875 114.568 182.442 114.134 183 113.696L182.272 85.1032L182.466 85C181.649 85.4061 180.827 85.8479 180 86.3255Z" fill="#D0021B"/>
<path d="M195.85 122.815L195.709 123C197.939 121.35 200.041 119.568 202 117.668L181.42 117C179.262 118.31 177.122 119.518 175 120.623L195.85 122.815Z" fill="#D0021B"/>
<path d="M163.561 125C158.851 126.732 154.314 127.744 150 128.021C153.573 129.14 168.302 133.251 181 129.362L163.561 125Z" fill="#D0021B"/>
<path d="M170.873 93C168.743 94.7966 166.753 96.7156 164.918 98.7441L165.193 98.6418L163 125C166.079 123.969 169.085 122.777 172 121.432L170.873 93Z" fill="#D0021B"/>
<path d="M202 100C207.46 94.2616 210.816 89.8671 210.864 89.8039L211 89.8496C209.754 86.2499 207.066 83.9617 203.465 83L202 100Z" fill="#D0021B"/>
<path d="M172.299 122C172.043 122.124 171.786 122.249 171.531 122.37C169.084 123.53 166.57 124.568 164 125.48L182.778 129.821L182.627 130C185.051 129.294 187.366 128.311 189.519 127.075C190.362 126.586 191.189 126.081 192 125.559L172.299 122Z" fill="#D0021B"/>
<path d="M192.118 106C195.426 103.371 198.432 100.751 201.043 98.3456L202.777 80.5716L203 80.4845C199.839 79.7794 196.086 79.8431 192 80.6807L192.118 106Z" fill="#D0021B"/>
<path d="M163.157 124.908L165 99C155.68 111.041 149.396 126.983 149 128C153.765 127.812 158.537 126.664 163.157 124.908Z" fill="#D0021B"/>
<path d="M172.896 121.996L172.912 122C175.694 120.336 178.394 118.507 181 116.521L179.888 87C178.768 87.6676 177.642 88.4016 176.511 89.2019C174.903 90.362 173.393 91.6829 172 93.1482L172.896 121.996Z" fill="#D0021B"/>
<path d="M155.91 65.1526L152 74.3264C152.713 77.5341 153.405 81.1505 153.953 85L160.89 71.4349L161 71.6C159.461 69.0106 157.705 66.7732 155.793 65L155.91 65.1526Z" fill="#D0021B"/>
<path d="M151.395 73L155 64.074C152.946 62.0956 150.707 60.7113 148.365 60.0888C148.243 60.0564 148.121 60.028 148 60C148.276 60.8511 149.864 65.8577 151.395 73Z" fill="#D0021B"/>
<path d="M166.913 94.0615L167 94.2736C166.918 92.8341 166.782 91.4096 166.591 90L154.186 104.54L154.142 104.445C154.108 105.308 154.06 106.16 154 107L166.913 94.0615Z" fill="#D0021B"/>
<path d="M164.896 81.6512L165 81.853C163.935 78.0745 162.411 74.4314 160.462 71L153 85.8083C153.524 89.6757 153.864 93.4063 154.022 97L164.896 81.6512Z" fill="#D0021B"/>
<path d="M131.912 72C131.01 74.5427 130.369 77.1693 130 79.8396L154 94C153.81 90.9912 153.508 88.1115 153.151 85.4499L131.884 72.2258L131.912 72Z" fill="#D0021B"/>
<path d="M129 83.7822L129.024 83.5637L154 97C153.971 96.2894 153.934 95.585 153.891 94.8866L129.293 81.2181L129.319 81C129.186 81.9049 129.079 82.8323 129 83.7822Z" fill="#D0021B"/>
<path d="M166.901 89.7588L167 89.9466C166.628 87.6021 166.068 85.2813 165.323 83L154 96.806C154.093 98.9332 154.101 100.998 154.024 103L166.901 89.7588Z" fill="#D0021B"/>
<path d="M153.734 117.108C152.684 122.327 151.102 126.975 149 131C151.914 128.445 163.49 117.62 167 104L153.734 117.108Z" fill="#D0021B"/>
<path d="M130 94C130.512 96.6481 131.19 99.2564 132.028 101.808L132.069 101.538L152.841 118C153.394 115.049 153.781 112.066 154 109.066L130 94Z" fill="#D0021B"/>
<path d="M152 73C149.955 65.4658 147.832 60.3968 147.801 60.3241L147.939 60.2321C143.499 59.4741 139.395 60.603 136 63.1774L152 73Z" fill="#D0021B"/>
<path d="M154.28 109.174C154.257 109.456 154.235 109.739 154.209 110.019C153.963 112.697 153.56 115.362 153 118L167.881 105.034L167.971 105.261C168.649 102.861 168.995 100.392 169 97.9116C168.997 96.9371 168.969 95.9666 168.916 95L154.28 109.174Z" fill="#D0021B"/>
<path d="M153 85C152.46 81.0171 151.779 77.2769 151.079 73.9589L137.235 63.2209L137.273 63C135.128 65.1081 133.326 68.0869 132 71.7346L153 85Z" fill="#D0021B"/>
<path d="M153 117.298L132 102C137.115 116.322 147.21 130.124 147.857 131C150.312 126.84 151.955 122.165 153 117.298Z" fill="#D0021B"/>
<path d="M153.743 108L153.756 107.988C154 104.663 154.061 101.328 153.939 97.9967L129.147 84C129.047 85.3378 128.998 86.7137 129 88.1277C129.021 90.1503 129.231 92.1668 129.626 94.1521L153.743 108Z" fill="#D0021B"/>
<path d="M115 151C172.99 151 220 148.314 220 145C220 141.686 172.99 139 115 139C57.0101 139 10 141.686 10 145C10 148.314 57.0101 151 115 151Z" fill="#3F3D56"/>
<path opacity="0.1" d="M162 137.335C162 149.11 145.085 145.468 124.374 145.468C103.664 145.468 87 149.11 87 137.335C87 125.561 103.913 123 124.623 123C145.334 123 162 125.561 162 137.335Z" fill="black"/>
<path d="M162 134.712C162 145.975 145.085 142.491 124.374 142.491C103.664 142.491 87 145.975 87 134.712C87 123.45 103.913 121 124.623 121C145.334 121 162 123.45 162 134.712Z" fill="#3F3D56"/>
<path d="M100.5 111C109.613 111 117 103.837 117 95C117 86.1634 109.613 79 100.5 79C91.3873 79 84 86.1634 84 95C84 103.837 91.3873 111 100.5 111Z" fill="#D0021B"/>
<path d="M91.4058 70.3394H91.4058C88.4335 71.3458 85.1964 71.1981 82.3263 69.925C79.4562 68.6519 77.1593 66.3448 75.8841 63.4543L58.4591 23.9584C57.5027 21.7906 57.0057 19.4449 57 17.0719C56.9944 14.6989 57.4801 12.3508 58.4262 10.1783C59.3722 8.00584 60.7577 6.05688 62.4937 4.45641C64.2297 2.85595 66.278 1.6393 68.5071 0.884498L68.5072 0.884484C70.7475 0.125871 73.1208 -0.149358 75.4733 0.0766201C77.8258 0.302598 80.105 1.02474 82.1634 2.19629C84.2218 3.36784 86.0134 4.96267 87.4222 6.87749C88.8311 8.79232 89.8257 10.9844 90.3417 13.3119L99.6958 55.5029C100.376 58.5728 99.9058 61.7883 98.3747 64.5284C96.8436 67.2685 94.3608 69.3388 91.4058 70.3394Z" fill="#D0021B"/>
<path opacity="0.1" d="M100.5 111C109.613 111 117 103.837 117 95C117 86.1634 109.613 79 100.5 79C91.3873 79 84 86.1634 84 95C84 103.837 91.3873 111 100.5 111Z" fill="black"/>
<path opacity="0.1" d="M91.4058 70.3394H91.4058C88.4335 71.3458 85.1964 71.1981 82.3263 69.925C79.4562 68.6519 77.1593 66.3448 75.8841 63.4543L58.4591 23.9584C57.5027 21.7906 57.0057 19.4449 57 17.0719C56.9944 14.6989 57.4801 12.3508 58.4262 10.1783C59.3722 8.00584 60.7577 6.05688 62.4937 4.45641C64.2297 2.85595 66.278 1.6393 68.5071 0.884498L68.5072 0.884484C70.7475 0.125871 73.1208 -0.149358 75.4733 0.0766201C77.8258 0.302598 80.105 1.02474 82.1634 2.19629C84.2218 3.36784 86.0134 4.96267 87.4222 6.87749C88.8311 8.79232 89.8257 10.9844 90.3417 13.3119L99.6958 55.5029C100.376 58.5728 99.9058 61.7883 98.3747 64.5284C96.8436 67.2685 94.3608 69.3388 91.4058 70.3394Z" fill="black"/>
<path d="M99.5 106C106.956 106 113 100.404 113 93.5C113 86.5964 106.956 81 99.5 81C92.0442 81 86 86.5964 86 93.5C86 100.404 92.0442 106 99.5 106Z" fill="#D0021B"/>
<path d="M90.0054 65.3952H90.0054C87.2405 66.3166 84.2292 66.1813 81.5593 65.0158C78.8895 63.8503 76.7528 61.7382 75.5666 59.092L59.3573 22.9338C58.4676 20.9491 58.0053 18.8017 58 16.6292C57.9948 14.4567 58.4466 12.3071 59.3267 10.3182C60.2067 8.3293 61.4955 6.54503 63.1104 5.07982C64.7253 3.6146 66.6307 2.50077 68.7043 1.80975L68.7043 1.80974C70.7884 1.11523 72.9961 0.863264 75.1845 1.07015C77.3729 1.27703 79.4931 1.93815 81.4078 3.01069C83.3226 4.08324 84.9892 5.54329 86.2998 7.2963C87.6103 9.04931 88.5355 11.0562 89.0156 13.187L97.7171 51.8125C98.3502 54.623 97.9124 57.5668 96.4881 60.0753C95.0639 62.5839 92.7543 64.4792 90.0054 65.3952Z" fill="#D0021B"/>
<path d="M37.201 54.2572L41.2373 54.4141L41.4385 49.2141L37.4023 49.0572L37.201 54.2572Z" fill="#F7F7F7"/>
<path d="M52.7846 87.0911C52.7846 87.0911 55.4889 93.5548 56.4881 98.2191C57.4874 102.883 59.0091 109.302 57.0517 113.855C55.0943 118.407 49.5291 131.786 49.4718 133.23C49.4145 134.673 49.9485 136.139 48.7658 136.095C47.5832 136.05 41.1474 134.071 40.8861 133.194C40.6249 132.317 43.0819 130.096 43.0819 130.096L49.1491 111.531L42.8189 99.4364L38.253 117.48L37.3587 140C37.3587 140 32.9696 138.677 32.3324 139.81C32.3324 139.81 30.366 137.133 30.1162 135.967C29.8664 134.801 31.0449 112.581 31.0449 112.581C31.0449 112.581 27.0161 87.2719 30.2684 87.3951C33.5207 87.5182 46.2595 79.9044 52.7846 87.0911Z" fill="#2F2E41"/>
<path d="M48.9919 134.994C48.9919 134.994 52.2637 141.482 52.5736 141.783C52.8836 142.084 55.0156 145.055 53.4034 144.999C51.7912 144.943 47.9844 143.362 45.1825 140.946C42.3805 138.531 38.6863 134.346 39.0213 134.068C39.3562 133.789 41.6508 133 41.6508 133L48.9919 134.994Z" fill="#2F2E41"/>
<path d="M36.9129 138.492C36.9129 138.492 37.1022 141.213 37.6725 142.319C38.2429 143.425 38.171 145.051 36.6252 144.999C35.0794 144.946 31.0844 144.267 31.0844 144.267C31.0844 144.267 30.8471 142.63 31.1683 142.369C31.4894 142.109 32.8579 139.168 32.2756 138.334C31.6932 137.5 36.9129 138.492 36.9129 138.492Z" fill="#2F2E41"/>
<path d="M34.6782 44C34.6782 44 31.5036 49.1356 30.266 50.3243C29.0285 51.5129 32.5101 54.13 32.5101 54.13L38.7415 55C38.7415 55 38.6631 49.1142 38.984 48.5079C39.305 47.9016 34.6782 44 34.6782 44Z" fill="#FFB9B9"/>
<path d="M40.2905 51.2767C40.2905 51.2767 38.9901 53.4653 37.7833 53.422C36.5765 53.3788 30.3342 50.9197 30.0676 50.072C29.801 49.2242 28 56.1446 28 56.1446L43.2742 81L47 78.619L45.1947 64.0255L43.7121 56.1492L40.2905 51.2767Z" fill="#F7F7F7"/>
<path d="M29.9873 73.7401C30.5686 74.944 30.9317 76.1993 30.8814 77.4845C30.8791 77.5415 30.8769 77.5984 30.8718 77.6553C30.7339 80.2927 29.7524 83.3429 29.4003 85.5611C29.1448 87.1522 29.2175 88.3137 30.1582 88.5867C32.4387 89.245 29.8257 89.7155 38.6488 92.6226C47.4719 95.5297 49.0117 93.0204 49.034 92.4505C49.0563 91.8806 47.7845 87.551 48.0835 87.2771C48.3825 87.0032 52.2674 90.8623 53.4412 90.3366C54.6149 89.8109 53.5751 86.9171 53.5751 86.9171C53.5751 86.9171 50.931 80.8226 50.9868 79.3978C51.0426 77.973 46.9815 71.2533 46.9815 71.2533L44.2192 53.4534C44.2192 53.4534 43.1571 51.1296 41.729 50.7894C40.3009 50.4492 39.1159 51.2598 39.1159 51.2598L41.5057 56.4885L44.0271 65.7176L43.6053 69.126C43.6053 69.126 40.6733 63.0204 38.7476 60.6634C36.8219 58.3064 32.7161 52.7265 32.7161 52.7265C32.7161 52.7265 31.7575 49.5247 32.4811 48.5679C33.2049 47.6083 29.4627 47.4647 27.8672 51.3988C27.0215 53.4839 25.6485 56.5932 24.7884 59.4882C24.022 62.053 23.66 64.4506 24.4193 65.821C25.5798 67.9146 28.4991 70.6665 29.9873 73.7401Z" fill="#575A89"/>
<path opacity="0.1" d="M24.4107 66.0598C25.5475 68.159 28.407 70.9182 29.8648 74C30.2456 72.61 30.7101 71.1718 30.7101 71.1718C30.7101 71.1718 32.4917 61.5128 27.2218 59.0166C26.3486 58.931 25.4753 59.1783 24.7723 59.7101C24.0216 62.2817 23.6669 64.6857 24.4107 66.0598Z" fill="black"/>
<path d="M38.0876 83C38.0876 83 44.1852 84.1122 42.7935 86.1295C41.4018 88.1468 36 86.026 36 86.026L38.0876 83Z" fill="#FFB9B9"/>
<path opacity="0.1" d="M30.4085 78C30.2765 80.5117 29.3371 83.4166 29 85.5291C30.8606 87.2635 32.63 88.7933 33.2968 88.8188C34.6745 88.8714 36.8896 88.6842 37.7055 88.9871C38.5215 89.2901 39 84.1444 39 84.1444C39 84.1444 38.513 82.4951 36.3407 81.5967C34.8745 80.989 32.0639 79.3406 30.4085 78Z" fill="black"/>
<path d="M26.5709 57.0189C26.5709 57.0189 21.7497 56.2718 22.0102 64.1601C22.2706 72.0484 21.502 77.0836 23.441 78.5646C25.3801 80.0456 31.6787 86.7579 33.1032 86.8124C34.5276 86.8668 36.8179 86.673 37.6615 86.9867C38.5052 87.3003 39 81.9732 39 81.9732C39 81.9732 38.4965 80.2658 36.2504 79.3358C34.0044 78.4058 28.7128 75.1084 28.757 73.9846C28.8012 72.8608 30.0955 68.9712 30.0955 68.9712C30.0955 68.9712 31.8956 59.4735 26.5709 57.0189Z" fill="#575A89"/>
<path d="M39 52C42.866 52 46 48.866 46 45C46 41.134 42.866 38 39 38C35.134 38 32 41.134 32 45C32 48.866 35.134 52 39 52Z" fill="#FFB9B9"/>
<path d="M43.5992 35.4177C43.7533 35.5636 43.9379 35.6653 44.1364 35.7139C44.3376 35.7405 44.5732 35.5982 44.5807 35.3758C44.7268 35.7088 44.8918 36.0638 45.1902 36.2347C45.4887 36.4056 45.9501 36.2623 45.9932 35.8956C46.0367 36.174 46.1489 36.4341 46.3174 36.6475C46.5025 36.8415 46.8383 36.8904 47 36.6726C46.8693 37.4573 46.95 38.2644 46.9089 39.0609C46.8679 39.8574 46.6746 40.7018 46.1268 41.2256C45.3281 41.9894 44.1269 41.8009 43.0761 41.6562C42.9172 41.6195 42.7524 41.6295 42.5981 41.6849C42.2046 41.8691 42.2225 42.4708 42.2172 42.9406C42.1986 44.586 40.9277 46.1004 39.4365 46.2539C39.0212 46.2967 38.5715 46.2329 38.2533 45.9367C37.955 45.6588 37.8026 45.206 37.4608 44.9973C36.9047 44.6578 36.2303 45.1529 35.8237 45.6905C35.4172 46.2281 35.0165 46.8894 34.3867 46.9878C33.5537 47.1179 32.9192 46.1852 32.608 45.3264C32.1785 44.1227 31.9728 42.8368 32.0029 41.5443C32.033 40.2519 32.2983 38.9791 32.7832 37.8011C34.5224 33.6356 40.4638 32.9767 43.5992 35.4177Z" fill="#2F2E41"/>
</svg>
