<svg width="230" height="152" viewBox="0 0 230 152" fill="none" xmlns="http://www.w3.org/2000/svg">
<g clip-path="url(#clip0)">
<path opacity="0.1" d="M213.287 124.254C212.57 124.886 211.836 125.5 211.086 126.096C210.96 126.198 210.83 126.296 210.701 126.4C208.027 128.478 205.218 130.378 202.295 132.087L201.749 132.405C201.617 132.485 201.486 132.56 201.348 132.634C198.294 134.4 195.126 136.025 191.919 137.564L191.885 137.582L191.643 137.697C189.057 138.938 186.432 140.126 183.769 141.26L183.705 141.284C182.504 141.791 181.303 142.284 180.102 142.763C179.612 142.964 179.119 143.15 178.627 143.341C177.7 143.695 176.772 144.044 175.835 144.379L175.719 144.423L175.519 144.493L175.268 144.585C172.825 145.459 170.349 146.266 167.841 147.006L167.797 147.019C166.047 147.529 164.287 148.001 162.515 148.436L162.272 148.496C159.67 149.125 157.026 149.666 154.366 150.099L153.754 150.197C151.808 150.503 149.85 150.753 147.877 150.947C136.791 152.019 125.572 151.147 114.554 149.652C92.3049 146.63 70.3501 140.964 50.3267 132.083C46.4838 130.379 42.7156 128.555 39.0221 126.611C38.9921 126.595 38.966 126.579 38.936 126.565C36.725 125.401 34.544 124.188 32.393 122.927C31.7625 122.562 31.136 122.189 30.5136 121.815C29.7477 121.352 28.9851 120.885 28.2258 120.412C27.2251 119.786 26.2243 119.145 25.2235 118.49L24.7552 118.177L24.575 118.055C24.3208 117.884 24.0706 117.714 23.8184 117.542C14.4112 111.128 6.02282 103.355 2.05979 93.6285C-2.51972 82.4045 0.410528 68.1741 11.7532 61.54C15.6522 59.2551 20.1837 58.0145 24.7632 56.9903L25.2315 56.886C26.0061 56.7157 26.7807 56.5513 27.5513 56.387C30.2514 55.8138 32.9655 55.2445 35.6535 54.6092C37.0546 54.2785 38.4416 53.9317 39.8207 53.5569L40.3851 53.4006C43.711 52.5071 46.9636 51.36 50.1146 49.9693H50.1346C50.4729 49.8189 50.8071 49.6626 51.1354 49.5023C51.3475 49.4021 51.5597 49.3018 51.7718 49.1916C55.1744 47.496 58.7772 45.145 61.5493 42.343C61.7715 42.1185 61.9877 41.89 62.1978 41.6615C62.3599 41.4832 62.5201 41.3028 62.6742 41.1224C64.6177 38.8535 65.9627 36.3342 66.2189 33.6604C66.3052 32.762 66.2647 31.8559 66.0988 30.9687C65.7846 29.2871 65.4803 27.6416 65.2562 26.0362C64.8378 23.0197 64.6957 20.1356 65.2762 17.3556C65.8666 14.5216 67.2057 11.7938 69.7616 9.1481C70.1472 8.74725 70.5629 8.34639 71.0086 7.94553C73.0756 6.12957 75.4145 4.64977 77.9399 3.56017C78.2521 3.42655 78.5663 3.29293 78.8826 3.15931C85.904 0.313236 94.3404 -0.28003 102.222 0.112809C109.586 0.492295 116.903 1.51163 124.091 3.15931C124.662 3.28759 125.232 3.42187 125.799 3.56017C131.913 5.04335 137.929 6.90626 143.812 9.13808C159.1 14.8964 173.529 22.8914 187.009 31.7143C187.141 31.8005 187.274 31.8867 187.41 31.9748C187.973 32.3423 188.533 32.7111 189.089 33.0812C190.166 33.7961 191.233 34.5156 192.291 35.2398L193.006 35.7269C193.358 35.9674 193.708 36.2086 194.057 36.4504L195.13 37.194C195.18 37.2244 195.228 37.2586 195.274 37.2962L196.186 37.9296C196.715 38.2984 197.239 38.6691 197.766 39.0419L198.894 39.8437C199.129 40.012 199.365 40.1784 199.599 40.3487L200.8 41.2266L201.068 41.427C201.124 41.4671 201.18 41.5072 201.234 41.5513L201.268 41.5733C204.523 43.9645 207.699 46.4437 210.675 49.0714L211.06 49.4121L211.1 49.4482C211.424 49.7368 211.748 50.0294 212.067 50.324C215.954 53.8676 219.436 57.6757 222.282 61.8847C235.356 81.3262 231.475 108.246 213.287 124.254Z" fill="#3BA064"/>
<path d="M157.427 59.3985C157.47 59.3985 157.505 59.3635 157.505 59.3204C157.505 59.2772 157.47 59.2422 157.427 59.2422C157.384 59.2422 157.349 59.2772 157.349 59.3204C157.349 59.3635 157.384 59.3985 157.427 59.3985Z" fill="#E6E8EC"/>
<path d="M94.5244 103.297C94.5244 103.297 96.7261 101.715 99.0139 102.695C99.0139 102.695 98.3734 104.054 95.5312 104.036L94.5244 103.297Z" fill="#3BA064"/>
<path d="M94.2499 103.391C94.2499 103.391 93.6614 106.042 95.4508 107.762C95.4508 107.762 96.4516 106.64 95.3167 104.028L94.2499 103.391Z" fill="#3BA064"/>
<path d="M91.332 100.977C91.332 100.977 91.4141 98.7382 96.476 99.2854C96.476 99.2854 96.556 100.726 94.8147 101.476C93.0734 102.226 92.2427 101.682 91.332 100.977Z" fill="#3BA064"/>
<path d="M91.0213 100.969C91.0213 100.969 88.9197 101.734 90.9973 106.39C90.9973 106.39 92.3983 106.022 92.5665 104.132C92.7346 102.241 91.97 101.626 91.0213 100.969Z" fill="#3BA064"/>
<path d="M88.0517 97.9155C88.0517 97.9155 87.6233 94.2537 92.7833 94.4321C92.7833 94.4321 93.2756 97.7432 88.9944 98.7633L88.0517 97.9155Z" fill="#3BA064"/>
<path d="M84.4932 93.8998C84.4932 93.8998 85.0396 89.7088 90.2296 90.753C90.2296 90.753 90.3857 94.3608 85.3698 94.8598L84.4932 93.8998Z" fill="#3BA064"/>
<path d="M81.8447 89.7067C81.8447 89.7067 82.8695 85.5979 88.0114 86.6261C88.0114 86.6261 86.9386 90.318 82.207 90.4342L81.8447 89.7067Z" fill="#3BA064"/>
<path d="M79.3242 85.6091C79.3242 85.6091 80.325 81.3561 85.2828 82.4324C85.2828 82.4324 83.7936 86.493 79.6785 86.3146L79.3242 85.6091Z" fill="#3BA064"/>
<path d="M77.6494 81.6928C77.6494 81.6928 78.3399 76.5157 82.9755 77.4737C82.9755 77.4737 81.8226 82.2079 78.0197 82.4283L77.6494 81.6928Z" fill="#3BA064"/>
<path d="M76.04 76.9433C76.04 76.9433 76.9067 71.7142 81.6003 73.045C81.6003 73.045 79.969 78.0176 76.3963 77.6548L76.04 76.9433Z" fill="#3BA064"/>
<path d="M74.9854 72.5051C74.9854 72.5051 76.4785 67.2519 80.0733 67.2539C80.0733 67.2539 78.5521 72.7998 75.3256 73.5333L74.9854 72.5051Z" fill="#3BA064"/>
<path d="M74.2588 68.1576C74.2588 68.1576 75.86 61.8421 78.7983 62.2109C78.7983 62.2109 77.7074 67.0332 74.3949 69.1256L74.2588 68.1576Z" fill="#3BA064"/>
<path d="M73.7402 62.959C73.7402 62.959 75.2654 57.6878 78.1436 57.3711C78.1436 57.3711 77.1649 62.5361 73.8583 64.3079L73.7402 62.959Z" fill="#3BA064"/>
<path d="M73.2061 58.1184C73.2061 58.1184 75.1575 52.8271 77.059 52.6367C77.059 52.6367 76.3204 57.8017 73.4282 58.9662L73.2061 58.1184Z" fill="#3BA064"/>
<path d="M72.793 53.6068C72.793 53.6068 73.8998 47.8966 75.7833 47.3555C75.7833 47.3555 75.7012 51.9934 73.0011 54.0217L72.793 53.6068Z" fill="#3BA064"/>
<path d="M71.8506 47.7234C71.8506 47.7234 73.0695 43.1597 74.5847 42.4141C74.5847 42.4141 74.4826 47.7414 72.2509 48.8117L71.8506 47.7234Z" fill="#3BA064"/>
<path d="M71.1079 43.8609L70.5234 35.918C70.5234 35.918 73.6278 41.8105 71.3661 45.2499L71.1079 43.8609Z" fill="#3BA064"/>
<path d="M68.5805 36.0387C68.5805 36.0387 66.2867 30.3125 65.7783 30.0078C65.7783 30.0078 69.9815 33.6155 69.7814 38.4799L68.5805 36.0387Z" fill="#3BA064"/>
<path d="M87.909 97.8951C87.909 97.8951 84.2422 97.5584 84.5484 102.717C84.5484 102.717 87.867 103.118 88.7797 98.8171L87.909 97.8951Z" fill="#3BA064"/>
<path d="M84.3144 93.7695C84.3144 93.7695 80.0972 93.9178 80.6436 99.1811C80.6436 99.1811 84.2063 99.6781 85.1851 94.7276L84.3144 93.7695Z" fill="#3BA064"/>
<path d="M81.8172 90.0525C81.8172 90.0525 77.9202 88.401 75.6484 93.1331C75.6484 93.1331 79.2412 94.496 82.1834 90.7881L81.8172 90.0525Z" fill="#3BA064"/>
<path d="M79.2398 85.6541C79.2398 85.6541 75.2468 83.8923 73.1191 88.5121C73.1191 88.5121 77.2563 89.7628 79.5901 86.3596L79.2398 85.6541Z" fill="#3BA064"/>
<path d="M77.704 81.8016C77.704 81.8016 73.795 78.3382 70.9248 82.1022C70.9248 82.1022 74.8918 84.9222 77.9081 82.5973L77.704 81.8016Z" fill="#3BA064"/>
<path d="M76.2498 76.8076C76.2498 76.8076 72.3128 73.262 69.4746 77.2365C69.4746 77.2365 73.85 80.1006 76.4139 77.5752L76.2498 76.8076Z" fill="#3BA064"/>
<path d="M75.3692 72.3424C75.3692 72.3424 72.2688 67.8488 68.8682 69.0073C68.8682 69.0073 72.0866 73.7694 75.3772 73.4167L75.3692 72.3424Z" fill="#3BA064"/>
<path d="M74.3432 68.1286C74.3432 68.1286 71.1748 62.4365 68.4287 63.5509C68.4287 63.5509 70.7225 67.9302 74.4573 69.1007L74.3432 68.1286Z" fill="#3BA064"/>
<path d="M73.9307 62.6531C73.9307 62.6531 70.7282 58.2016 67.9141 58.869C67.9141 58.869 70.5641 63.4047 74.2749 63.9639L73.9307 62.6531Z" fill="#3BA064"/>
<path d="M73.5218 58.003C73.5218 58.003 70.9798 52.9682 69.0684 52.9923C69.0684 52.9923 70.3914 58.0391 73.3957 58.8668L73.5218 58.003Z" fill="#3BA064"/>
<path d="M72.8839 53.4902C72.8839 53.4902 70.0817 48.3993 68.1162 48.4655C68.1162 48.4655 69.6214 52.8529 72.8138 53.9512L72.8839 53.4902Z" fill="#3BA064"/>
<path d="M72.2811 48.0228C72.2811 48.0228 70.1655 43.8018 68.5322 43.3789C68.5322 43.3789 69.7071 48.576 72.111 49.1713L72.2811 48.0228Z" fill="#3BA064"/>
<path d="M70.8704 43.7163L66.2549 37.2305C66.2549 37.2305 67.6239 43.7484 71.5549 44.957L70.8704 43.7163Z" fill="#3BA064"/>
<path d="M67.6024 36.6123C67.6024 36.6123 62.3984 33.3033 62.1982 32.7461C62.1982 32.7461 64.9724 37.5564 69.784 38.2358L67.6024 36.6123Z" fill="#3BA064"/>
<path d="M67.2375 35.0503C67.2375 35.0503 61.2049 29.6728 59.7197 29.7349C59.7197 29.7349 64.5234 29.771 67.3656 34.7456L67.2375 35.0503Z" fill="#3BA064"/>
<path d="M72.2577 48.856L72.0456 48.8921C70.6245 40.3639 68.8431 35.3592 67.0117 34.802L67.0738 34.6016C69.0092 35.1868 70.8006 40.1193 72.2577 48.856Z" fill="#444053"/>
<path d="M74.6467 69.2876L74.3285 69.3277C74.2304 68.526 74.1483 67.7123 74.0803 66.8985C73.5038 59.8154 72.7813 53.3195 71.9727 48.4592L72.1488 48.2227C72.9494 53.091 73.8241 59.7793 74.4025 66.8624C74.4666 67.6822 74.5507 68.4979 74.6467 69.2876Z" fill="#444053"/>
<path d="M100.657 107.15C100.599 107.126 94.8647 104.823 88.782 99.0323C85.2207 95.6441 82.2179 91.7125 79.8852 87.3834C76.969 81.9719 75.0595 75.2535 74.2549 68.6875L74.5951 68.8318C76.3965 83.5673 83.51 93.4163 89.0642 98.7076C95.0868 104.446 100.757 106.725 100.813 106.751L100.657 107.15Z" fill="#444053"/>
<g opacity="0.7">
<path opacity="0.7" d="M104.642 100.616C104.642 100.616 107.216 99.7638 109.105 101.375C109.105 101.375 108.09 102.484 105.382 101.618L104.642 100.616Z" fill="#3BA064"/>
<path opacity="0.7" d="M104.351 100.617C104.351 100.617 103.002 102.974 104.203 105.151C104.203 105.151 105.49 104.375 105.184 101.543L104.351 100.617Z" fill="#3BA064"/>
<path opacity="0.7" d="M102.281 97.4451C102.281 97.4451 103.026 95.3306 107.685 97.3629C107.685 97.3629 107.333 98.7659 105.448 98.9663C103.562 99.1667 102.942 98.3891 102.281 97.4451Z" fill="#3BA064"/>
<path opacity="0.7" d="M101.989 97.3594C101.989 97.3594 99.7535 97.4656 100.356 102.528C100.356 102.528 101.793 102.593 102.524 100.841C103.254 99.0891 102.7 98.2533 101.989 97.3594Z" fill="#3BA064"/>
<path opacity="0.7" d="M100.058 93.5532C100.058 93.5532 100.738 89.9294 105.61 91.6371C105.61 91.6371 105.095 94.9442 100.706 94.6435L100.058 93.5532Z" fill="#3BA064"/>
<path opacity="0.7" d="M97.8545 88.6537C97.8545 88.6537 99.6218 84.8156 104.259 87.359C104.259 87.359 103.341 90.8404 98.4009 89.8303L97.8545 88.6537Z" fill="#3BA064"/>
<path opacity="0.7" d="M96.5713 83.86C96.5713 83.86 98.773 80.2423 103.376 82.7556C103.376 82.7556 101.255 85.9625 96.7034 84.6717L96.5713 83.86Z" fill="#3BA064"/>
<path opacity="0.7" d="M95.3848 79.1971C95.3848 79.1971 97.5985 75.433 102.02 77.9384C102.02 77.9384 99.3918 81.3717 95.5109 79.9748L95.3848 79.1971Z" fill="#3BA064"/>
<path opacity="0.7" d="M94.9502 74.9572C94.9502 74.9572 97.1519 70.217 101.283 72.5159C101.283 72.5159 98.7751 76.6908 95.0783 75.7689L94.9502 74.9572Z" fill="#3BA064"/>
<path opacity="0.7" d="M94.8242 69.9431C94.8242 69.9431 97.206 65.209 101.291 67.8787C101.291 67.8787 98.2548 72.1398 94.9503 70.7188L94.8242 69.9431Z" fill="#3BA064"/>
<path opacity="0.7" d="M95.1367 65.3909C95.1367 65.3909 98.123 60.8212 101.554 61.8935C101.554 61.8935 98.4533 66.7358 95.1487 66.4752L95.1367 65.3909Z" fill="#3BA064"/>
<path opacity="0.7" d="M95.7332 61.0247C95.7332 61.0247 99.1358 55.4708 101.834 56.7014C101.834 56.7014 99.358 60.9786 95.5791 61.9907L95.7332 61.0247Z" fill="#3BA064"/>
<path opacity="0.7" d="M96.7854 55.9049C96.7854 55.9049 99.8077 51.3292 102.646 51.8823C102.646 51.8823 100.178 56.5222 96.4932 57.2297L96.7854 55.9049Z" fill="#3BA064"/>
<path opacity="0.7" d="M97.7109 51.1297C97.7109 51.1297 101.148 46.6582 103.019 47.043C103.019 47.043 100.779 51.7531 97.6729 52.0056L97.7109 51.1297Z" fill="#3BA064"/>
<path opacity="0.7" d="M98.6572 46.6982C98.6572 46.6982 101.409 41.5773 103.371 41.6214C103.371 41.6214 101.914 46.0308 98.7313 47.1572L98.6572 46.6982Z" fill="#3BA064"/>
<path opacity="0.7" d="M99.5078 40.7981C99.5078 40.7981 102.026 36.8055 103.695 36.543C103.695 36.543 102.014 41.5998 99.5659 41.9545L99.5078 40.7981Z" fill="#3BA064"/>
<path opacity="0.7" d="M99.9443 36.8874L101.746 29.1328C101.746 29.1328 102.961 35.6808 99.7842 38.2984L99.9443 36.8874Z" fill="#3BA064"/>
<path opacity="0.7" d="M99.8535 28.6722C99.8535 28.6722 99.3651 22.5211 98.9668 22.0781C98.9668 22.0781 101.915 26.7802 100.268 31.3579L99.8535 28.6722Z" fill="#3BA064"/>
<path opacity="0.7" d="M99.9296 93.4851C99.9296 93.4851 96.527 92.068 95.29 97.0928C95.29 97.0928 98.3344 98.4738 100.494 94.6295L99.9296 93.4851Z" fill="#3BA064"/>
<path opacity="0.7" d="M97.7242 88.4715C97.7242 88.4715 93.6551 87.3572 92.6104 92.5522C92.6104 92.5522 95.8628 94.0895 98.2707 89.654L97.7242 88.4715Z" fill="#3BA064"/>
<path opacity="0.7" d="M96.4429 84.1798C96.4429 84.1798 93.2144 81.442 89.6377 85.2842C89.6377 85.2842 92.662 87.6553 96.573 84.9916L96.4429 84.1798Z" fill="#3BA064"/>
<path opacity="0.7" d="M95.2907 79.2162C95.2907 79.2162 92.0042 76.344 88.5996 80.1261C88.5996 80.1261 92.1763 82.5513 95.4168 79.9958L95.2907 79.2162Z" fill="#3BA064"/>
<path opacity="0.7" d="M94.9683 75.0781C94.9683 75.0781 92.2642 70.6066 88.4072 73.3444C88.4072 73.3444 91.3555 77.2207 94.9262 75.8978L94.9683 75.0781Z" fill="#3BA064"/>
<path opacity="0.7" d="M95.064 69.88C95.064 69.88 92.358 65.3243 88.459 68.2766C88.459 68.2766 91.7855 72.3152 94.984 70.6677L95.064 69.88Z" fill="#3BA064"/>
<path opacity="0.7" d="M95.549 65.3487C95.549 65.3487 93.9257 60.1375 90.333 60.2277C90.333 60.2277 91.9923 65.7355 95.2367 66.3869L95.549 65.3487Z" fill="#3BA064"/>
<path opacity="0.7" d="M95.8224 61.0209C95.8224 61.0209 94.4874 54.6433 91.5352 54.8898C91.5352 54.8898 92.4238 59.7542 95.6423 61.9829L95.8224 61.0209Z" fill="#3BA064"/>
<path opacity="0.7" d="M97.0561 55.6733C97.0561 55.6733 95.3208 50.4621 92.4346 50.2617C92.4346 50.2617 93.6195 55.3847 96.994 57.0222L97.0561 55.6733Z" fill="#3BA064"/>
<path opacity="0.7" d="M98.0469 51.1109C98.0469 51.1109 97.1162 45.5471 95.2828 45.0039C95.2828 45.0039 95.0467 50.215 97.6707 51.9026L98.0469 51.1109Z" fill="#3BA064"/>
<path opacity="0.7" d="M98.7869 46.6156C98.7869 46.6156 97.62 40.9194 95.7285 40.4023C95.7285 40.4023 95.8606 45.0383 98.5847 47.0385L98.7869 46.6156Z" fill="#3BA064"/>
<path opacity="0.7" d="M99.8278 41.214C99.8278 41.214 99.0612 36.5541 97.6261 35.6602C97.6261 35.6602 97.2038 40.9735 99.3214 42.2583L99.8278 41.214Z" fill="#3BA064"/>
<path opacity="0.7" d="M99.7605 36.6833L97.2806 29.1172C97.2806 29.1172 96.6501 35.7494 100.045 38.0743L99.7605 36.6833Z" fill="#3BA064"/>
<path opacity="0.7" d="M98.7491 28.9283C98.7491 28.9283 94.7641 24.2183 94.7461 23.625C94.7461 23.625 95.965 29.0366 100.35 31.125L98.7491 28.9283Z" fill="#3BA064"/>
<path opacity="0.7" d="M98.865 27.3273C98.865 27.3273 94.7038 20.3945 93.2607 20.0117C93.2607 20.0117 97.8402 21.4789 99.0652 27.0748L98.865 27.3273Z" fill="#3BA064"/>
<path opacity="0.7" d="M99.5563 42.0021L99.3441 41.9721C100.521 33.4078 100.301 28.0964 98.7236 27.0201L98.8457 26.8438C100.517 27.9842 100.763 33.2234 99.5563 42.0021Z" fill="#444053"/>
<path opacity="0.7" d="M95.7694 62.2219L95.4531 62.1638C95.5972 61.3721 95.7594 60.5604 95.9395 59.7707C97.4927 52.8379 98.7416 46.4202 99.4042 41.5317L99.6423 41.3594C98.9698 46.2478 97.8089 52.892 96.2517 59.8328C96.0756 60.6345 95.9115 61.4342 95.7694 62.2219Z" fill="#444053"/>
<path opacity="0.7" d="M109.351 106.116C109.303 106.078 104.511 102.168 100.426 94.8304C98.0286 90.5352 96.3268 85.8862 95.3843 81.0569C94.2074 75.0201 94.3835 68.0291 95.5624 61.5312L95.8446 61.7698C93.1926 76.377 97.0456 87.8976 100.782 94.6039C104.828 101.875 109.563 105.744 109.611 105.782L109.351 106.116Z" fill="#444053"/>
</g>
<g opacity="0.5">
<path opacity="0.5" d="M150.872 120.66C150.872 120.66 144.751 120.291 145.468 124.587C145.431 124.804 145.464 125.028 145.561 125.226C145.659 125.424 145.817 125.586 146.012 125.689C146.012 125.689 146.012 125.37 146.638 125.479C146.858 125.516 147.082 125.527 147.305 125.511C147.605 125.491 147.891 125.374 148.118 125.176C148.118 125.176 149.837 124.464 150.507 121.646C150.507 121.646 151.002 121.033 150.982 120.875L149.949 121.318C149.949 121.318 150.303 122.063 150.025 122.683C150.025 122.683 149.991 121.344 149.793 121.376C149.753 121.376 149.256 121.634 149.256 121.634C149.256 121.634 149.857 122.933 149.405 123.879C149.405 123.879 149.579 122.276 149.066 121.729L148.34 122.153C148.34 122.153 149.048 123.496 148.568 124.591C148.568 124.591 148.692 122.911 148.186 122.258L147.527 122.771C147.527 122.771 148.194 124.094 147.787 125.004C147.787 125.004 147.735 123.047 147.387 122.899C147.387 122.899 146.811 123.408 146.722 123.619C146.722 123.619 147.179 124.579 146.897 125.086C146.897 125.086 146.722 123.781 146.58 123.777C146.58 123.777 146.006 124.639 145.946 125.23C145.974 124.683 146.144 124.153 146.44 123.693C146.109 123.756 145.804 123.915 145.562 124.15C145.562 124.15 145.65 123.548 146.582 123.484C146.582 123.484 147.057 122.831 147.183 122.791C147.183 122.791 146.256 122.713 145.694 122.963C145.694 122.963 146.188 122.386 147.351 122.649L148.001 122.117C148.001 122.117 146.783 121.949 146.264 122.133C146.264 122.133 146.865 121.624 148.178 121.995L148.886 121.572C148.886 121.572 147.845 121.348 147.225 121.428C147.225 121.428 147.879 121.075 149.094 121.458L149.601 121.229C149.601 121.229 148.838 121.079 148.614 121.057C148.39 121.035 148.38 120.971 148.38 120.971C148.862 120.891 149.358 120.946 149.811 121.131C149.811 121.131 150.89 120.728 150.872 120.66Z" fill="#3BA064"/>
</g>
<g opacity="0.5">
<path opacity="0.5" d="M139.889 90.6623C139.889 90.6623 136.781 95.9556 140.932 97.2624C141.109 97.3942 141.323 97.4666 141.544 97.4695C141.764 97.4724 141.98 97.4055 142.161 97.2784C142.161 97.2784 141.883 97.1241 142.257 96.623C142.39 96.4435 142.501 96.2491 142.589 96.0438C142.706 95.7662 142.731 95.4585 142.659 95.1659C142.659 95.1659 142.805 93.3079 140.604 91.4319C140.604 91.4319 140.281 90.7104 140.133 90.6562L140.057 91.7786C140.057 91.7786 140.88 91.8027 141.306 92.3318C141.306 92.3318 140.105 91.7546 140.037 91.945C140.025 91.9851 140.023 92.5463 140.023 92.5463C140.023 92.5463 141.456 92.5944 142.089 93.4322C142.089 93.4322 140.744 92.5503 140.021 92.7587L140.069 93.6005C140.069 93.6005 141.586 93.5765 142.343 94.5025C142.343 94.5025 140.904 93.6286 140.093 93.7829L140.251 94.6047C140.251 94.6047 141.732 94.6047 142.355 95.3844C142.355 95.3844 140.592 94.5446 140.301 94.7831C140.301 94.7831 140.502 95.5287 140.638 95.703C140.638 95.703 141.7 95.7311 142.023 96.2141C142.023 96.2141 140.784 95.7772 140.714 95.9015C140.714 95.9015 141.222 96.8054 141.714 97.1281C141.241 96.8544 140.847 96.4612 140.572 95.9876C140.473 96.3143 140.473 96.6631 140.572 96.9898C140.572 96.9898 140.069 96.633 140.445 95.7872C140.445 95.7872 140.077 95.0677 140.099 94.9354C140.099 94.9354 139.611 95.7271 139.577 96.3384C139.577 96.3384 139.289 95.6349 140.049 94.7149L139.873 93.8932C139.873 93.8932 139.171 94.9073 139.098 95.4525C139.098 95.4525 138.916 94.6889 139.845 93.6827L139.789 92.859C139.789 92.859 139.116 93.6847 138.908 94.274C138.908 94.274 138.89 93.5304 139.781 92.6204L139.809 92.0653C139.809 92.0653 139.329 92.6786 139.209 92.867C139.088 93.0554 139.026 93.0373 139.026 93.0373C139.173 92.5708 139.447 92.1544 139.817 91.8348C139.817 91.8348 139.957 90.6763 139.889 90.6623Z" fill="#3BA064"/>
</g>
<g opacity="0.5">
<path opacity="0.5" d="M120.448 48.4298C120.448 48.4298 117.341 53.7251 121.491 55.0299C121.667 55.1623 121.882 55.2351 122.102 55.238C122.323 55.2409 122.539 55.1736 122.72 55.0459C122.72 55.0459 122.441 54.8916 122.818 54.3905C122.95 54.211 123.061 54.0166 123.148 53.8113C123.266 53.534 123.29 53.2259 123.218 52.9334C123.218 52.9334 123.366 51.0754 121.162 49.1994C121.162 49.1994 120.84 48.4799 120.692 48.4258L120.616 49.5462C120.616 49.5462 121.441 49.5702 121.865 50.0994C121.865 50.0994 120.664 49.5221 120.598 49.7125C120.584 49.7526 120.584 50.3138 120.584 50.3138C120.584 50.3138 122.015 50.3619 122.647 51.1997C122.647 51.1997 121.302 50.3178 120.58 50.5263L120.63 51.3681C120.63 51.3681 122.145 51.344 122.902 52.27C122.902 52.27 121.463 51.3981 120.652 51.5505L120.81 52.3722C120.81 52.3722 122.291 52.3722 122.916 53.1539C122.916 53.1539 121.15 52.3121 120.86 52.5526C120.86 52.5526 121.06 53.2962 121.198 53.4706C121.198 53.4706 122.259 53.4986 122.581 53.9816C122.581 53.9816 121.342 53.5447 121.274 53.669C121.274 53.669 121.781 54.5749 122.275 54.8956C121.801 54.6227 121.406 54.2302 121.13 53.7572C121.035 54.0802 121.035 54.4242 121.13 54.7473C121.13 54.7473 120.628 54.3905 121.004 53.5347C121.004 53.5347 120.636 52.8152 120.658 52.6829C120.658 52.6829 120.17 53.4746 120.136 54.0859C120.136 54.0859 119.847 53.3824 120.61 52.4624L120.432 51.6407C120.432 51.6407 119.729 52.6548 119.659 53.2C119.659 53.2 119.475 52.4364 120.404 51.4302L120.348 50.6064C120.348 50.6064 119.675 51.4322 119.467 52.0215C119.467 52.0215 119.449 51.2779 120.34 50.3699L120.368 49.8127C120.368 49.8127 119.887 50.4261 119.767 50.6145C119.647 50.8029 119.585 50.7848 119.585 50.7848C119.736 50.3174 120.013 49.9011 120.386 49.5823C120.386 49.5823 120.516 48.4538 120.448 48.4298Z" fill="#3BA064"/>
</g>
<g opacity="0.5">
<path opacity="0.5" d="M53.5248 8.32812C53.5248 8.32812 41.9559 16.7461 49.6138 23.4143C49.6138 23.4143 50.4804 24.9937 52.2278 24.5949C52.2278 24.5949 51.7754 24.0056 53.0464 23.2841C53.4969 23.0249 53.9149 22.7126 54.2914 22.3541C54.8006 21.8738 55.1399 21.2406 55.2581 20.5502C55.2581 20.5502 57.3037 16.714 54.3394 10.6491C54.3394 10.6491 54.3214 8.80715 54.0512 8.5526L52.8502 10.8816C52.8502 10.8816 54.5896 11.7013 55.0079 13.2306C55.0079 13.2306 52.9643 10.8675 52.6541 11.2263C52.5921 11.2965 52.0697 12.489 52.0697 12.489C52.0697 12.489 55.09 13.9281 55.6624 16.3092C55.6624 16.3092 53.6048 13.1665 51.8595 12.938L51.181 14.7839C51.181 14.7839 54.4455 16.1488 55.202 18.8346C55.202 18.8346 52.9363 15.6277 51.0589 15.1968L50.6346 17.1029C50.6346 17.1029 53.793 18.4958 54.4074 20.7346C54.4074 20.7346 51.4051 17.2913 50.5665 17.5458C50.5665 17.5458 50.2823 19.3176 50.4324 19.8247C50.4324 19.8247 52.6781 20.8769 52.9183 22.2098C52.9183 22.2098 50.6746 20.1213 50.4104 20.3217C50.4104 20.3217 50.6546 22.7269 51.4232 23.8833C51.4232 23.8833 50.1642 22.2619 50.0361 20.3799C50.0361 20.3799 49.1774 21.382 49.1294 22.5064C49.1294 22.5064 48.3848 21.2738 49.9841 19.7946C49.9841 19.7946 49.87 17.9106 50.0401 17.65C50.0401 17.65 48.2547 18.8867 47.6122 20.1694C47.6122 20.1694 47.6503 18.3976 50.1342 17.1409L50.5185 15.2188C50.5185 15.2188 48.0746 16.7281 47.4161 17.8244C47.4161 17.8244 47.7343 16.0206 50.6546 14.7338L51.3031 12.9199C51.3031 12.9199 49.1014 14.0604 48.1006 15.1246C48.1006 15.1246 48.7551 13.5212 51.5032 12.4048L52.0777 11.2423C52.0777 11.2423 50.4764 12.1042 50.0461 12.3928C49.6158 12.6814 49.4957 12.5932 49.4957 12.5932C50.2454 11.7312 51.2198 11.0948 52.3098 10.7553C52.3098 10.7553 53.6589 8.42233 53.5248 8.32812Z" fill="#3BA064"/>
</g>
<g opacity="0.5">
<path opacity="0.5" d="M42.2866 36.106C42.2866 36.106 27.3211 29.8045 25.3596 41.1668C25.3596 41.1668 24.3368 42.9386 25.7599 44.4017C25.7599 44.4017 26.0661 43.616 27.5133 44.4277C28.0294 44.7136 28.5777 44.937 29.1465 45.0932C29.9147 45.3054 30.731 45.2617 31.4723 44.9689C31.4723 44.9689 36.3921 44.7023 40.5332 38.2546C40.5332 38.2546 42.3066 37.1562 42.3966 36.7433L39.4284 36.9438C39.4284 36.9438 39.6565 39.1184 38.4276 40.4232C38.4276 40.4232 39.5184 37.048 38.994 36.9538C38.888 36.9337 37.4268 37.1262 37.4268 37.1262C37.4268 37.1262 37.8051 40.9082 35.8256 42.8644C35.8256 42.8644 37.663 39.0182 36.8624 37.1943L34.6747 37.6172C34.6747 37.6172 35.2752 41.5957 33.1095 43.9086C33.1095 43.9086 34.8889 39.8199 34.2024 37.7435L32.1048 38.449C32.1048 38.449 32.6112 42.3393 30.7998 44.2614C30.7998 44.2614 32.381 39.3289 31.6364 38.6494C31.6364 38.6494 29.751 39.415 29.3467 39.852C29.3467 39.852 29.6469 42.658 28.494 43.6701C28.494 43.6701 29.2025 40.2629 28.8523 40.1226C28.8523 40.1226 26.6606 41.7741 25.9921 43.1991C25.9921 43.1991 26.8267 41.0225 28.5761 39.7918C28.5761 39.7918 27.1069 39.5413 25.9741 40.1586C25.9741 40.1586 26.7327 38.7135 29.1065 39.399C29.1065 39.399 30.8658 38.1784 31.2181 38.1964C31.2181 38.1964 28.9724 37.1943 27.3491 37.3186C27.3491 37.3186 29.0885 36.3164 31.7665 37.99L33.8541 37.2324C33.8541 37.2324 30.9539 35.7432 29.4988 35.7492C29.4988 35.7492 31.4323 34.9996 34.3985 37.0841L36.5402 36.6411C36.5402 36.6411 34.1383 35.168 32.5171 34.8272C32.5171 34.8272 34.4606 34.5186 37.1566 36.5409L38.6218 36.4186C38.6218 36.4186 36.8484 35.3724 36.312 35.1179C35.7756 34.8633 35.7996 34.699 35.7996 34.699C37.0763 34.9209 38.2662 35.4941 39.2362 36.3545C39.2362 36.3545 42.2726 36.2924 42.2866 36.106Z" fill="#3BA064"/>
</g>
<g opacity="0.5">
<path opacity="0.5" d="M33.3253 20.1964C33.3253 20.1964 28.0192 7.91618 20.3914 13.5482C20.3914 13.5482 18.7761 14.0172 18.7901 15.6928C18.7901 15.6928 19.4186 15.4002 19.8149 16.709C19.9627 17.1725 20.1642 17.6172 20.4154 18.0338C20.7507 18.5986 21.2609 19.0384 21.8685 19.2865C21.8685 19.2865 24.9428 21.9361 31.0755 20.467C31.0755 20.467 32.7548 20.8257 33.043 20.6333L31.1676 19.056C31.1676 19.056 30.0668 20.479 28.5896 20.5471C28.5896 20.5471 31.1576 19.1642 30.8994 18.8094C30.8474 18.7373 29.8706 18.0197 29.8706 18.0197C29.8706 18.0197 27.9431 20.481 25.6674 20.5191C25.6674 20.5191 28.9479 19.2804 29.5083 17.7432L27.9672 16.741C27.9672 16.741 26.0317 19.4528 23.4317 19.5951C23.4317 19.5951 26.8143 18.1821 27.5889 16.5546L25.9416 15.787C25.9416 15.787 24.0281 18.3925 21.8645 18.4908C21.8645 18.4908 25.6093 16.4624 25.5513 15.6347C25.5513 15.6347 23.9961 15.0133 23.5037 15.0494C23.5037 15.0494 22.0887 16.8833 20.8257 16.8312C20.8257 16.8312 23.1855 15.2098 23.0554 14.9271C23.0554 14.9271 20.8137 14.6586 19.6068 15.1276C19.6068 15.1276 21.3401 14.3098 23.0794 14.5784C23.0794 14.5784 22.3489 13.5903 21.3281 13.3157C21.3281 13.3157 22.603 12.8888 23.6218 14.6486C23.6218 14.6486 25.3612 14.9291 25.5633 15.1376C25.5633 15.1376 24.8027 13.2556 23.7619 12.4078C23.7619 12.4078 25.3632 12.8086 26.0056 15.328L27.6769 16.0716C27.6769 16.0716 26.8023 13.5302 25.9336 12.7064C25.9336 12.7064 27.5088 13.3638 28.0852 16.2941L29.6044 17.2541C29.6044 17.2541 29.016 15.0093 28.2494 13.8809C28.2494 13.8809 29.5784 14.8069 30.0307 17.5467L30.9714 18.3084C30.9714 18.3084 30.5111 16.6769 30.337 16.2199C30.1628 15.7629 30.2729 15.6788 30.2729 15.6788C30.9042 16.5387 31.2847 17.5573 31.3718 18.621C31.3718 18.621 33.2132 20.3026 33.3253 20.1964Z" fill="#3BA064"/>
</g>
<g opacity="0.5">
<path opacity="0.5" d="M136.741 26.5829C136.741 26.5829 135.49 20.5701 131.537 22.3959C131.317 22.417 131.109 22.5073 130.944 22.6539C130.779 22.8004 130.664 22.9957 130.616 23.2117C130.616 23.2117 130.926 23.1375 130.984 23.7629C131.006 23.9848 131.054 24.2034 131.127 24.4143C131.227 24.6986 131.415 24.9432 131.665 25.1117C131.665 25.1117 132.802 26.5869 135.69 26.4947C135.69 26.4947 136.413 26.8114 136.561 26.7513L135.862 25.8694C135.862 25.8694 135.236 26.4065 134.567 26.3003C134.567 26.3003 135.848 25.9175 135.768 25.7331C135.75 25.695 135.378 25.2821 135.378 25.2821C135.378 25.2821 134.285 26.2101 133.254 26.0157C133.254 26.0157 134.841 25.7631 135.238 25.1238L134.637 24.5325C134.637 24.5325 133.528 25.5707 132.348 25.3923C132.348 25.3923 133.999 25.0717 134.497 24.4123L133.829 23.9112C133.829 23.9112 132.728 24.9013 131.745 24.747C131.745 24.747 133.617 24.1818 133.667 23.805C133.667 23.805 133.026 23.3821 132.8 23.352C132.8 23.352 131.999 24.0455 131.433 23.9052C131.433 23.9052 132.634 23.3961 132.612 23.2558C132.612 23.2558 131.629 22.9271 131.043 23.0253C131.577 22.9093 132.132 22.9349 132.654 23.0995C132.507 22.7956 132.273 22.5419 131.983 22.3699C131.983 22.3699 132.596 22.2957 132.892 23.1716C132.892 23.1716 133.647 23.4582 133.719 23.5725C133.719 23.5725 133.55 22.6565 133.162 22.1695C133.162 22.1695 133.847 22.4962 133.901 23.6907L134.583 24.1798C134.583 24.1798 134.425 22.9571 134.111 22.5042C134.111 22.5042 134.757 22.9471 134.745 24.308L135.346 24.8813C135.346 24.8813 135.29 23.817 135.05 23.2397C135.05 23.2397 135.56 23.7789 135.51 25.0436L135.862 25.4745C135.862 25.4745 135.808 24.6989 135.772 24.4724C135.736 24.2459 135.792 24.2218 135.792 24.2218C135.997 24.6678 136.074 25.1618 136.014 25.6489C136.014 25.6489 136.681 26.619 136.741 26.5829Z" fill="#3BA064"/>
</g>
<g opacity="0.5">
<path opacity="0.5" d="M115.2 138.048C115.2 138.048 113.951 132.035 109.996 133.861C109.776 133.882 109.568 133.972 109.402 134.119C109.236 134.265 109.121 134.46 109.073 134.677C109.073 134.677 109.383 134.602 109.442 135.228C109.463 135.45 109.512 135.669 109.586 135.879C109.685 136.163 109.873 136.408 110.122 136.577C110.122 136.577 111.259 138.052 114.149 137.96C114.149 137.96 114.872 138.276 115.018 138.216L114.321 137.334C114.321 137.334 113.695 137.871 113.024 137.765C113.024 137.765 114.305 137.382 114.225 137.198C114.209 137.16 113.835 136.747 113.835 136.747C113.835 136.747 112.742 137.675 111.711 137.481C111.711 137.481 113.3 137.228 113.695 136.589L113.094 135.987C113.094 135.987 111.997 137.03 110.813 136.845C110.813 136.845 112.464 136.524 112.962 135.865L112.294 135.364C112.294 135.364 111.195 136.354 110.212 136.2C110.212 136.2 112.084 135.637 112.134 135.258C112.134 135.258 111.491 134.835 111.267 134.805C111.267 134.805 110.466 135.498 109.898 135.358C109.898 135.358 111.099 134.849 111.077 134.709C111.077 134.709 110.094 134.38 109.508 134.478C110.043 134.362 110.599 134.388 111.121 134.552C110.973 134.249 110.74 133.995 110.45 133.823C110.45 133.823 111.061 133.749 111.357 134.624C111.357 134.624 112.114 134.911 112.186 135.025C112.186 135.025 112.017 134.109 111.629 133.622C111.629 133.622 112.314 133.949 112.366 135.144L113.05 135.633C113.05 135.633 112.89 134.41 112.576 133.957C112.576 133.957 113.224 134.4 113.212 135.761L113.813 136.334C113.813 136.334 113.757 135.27 113.515 134.693C113.515 134.693 114.027 135.232 113.977 136.496L114.329 136.927C114.329 136.927 114.273 136.152 114.237 135.925C114.201 135.699 114.257 135.677 114.257 135.677C114.462 136.122 114.539 136.615 114.479 137.102C114.479 137.102 115.144 138.078 115.2 138.048Z" fill="#3BA064"/>
</g>
<path d="M129.713 110.215C129.713 110.215 111.234 111.172 115.538 116.997C119.842 122.822 131.152 113.58 131.152 113.58L129.713 110.215Z" fill="#FFB8B8"/>
<path d="M163.767 54.7305L160.006 55.6721C160.006 55.6721 157.812 62.2635 156.244 68.2271C154.677 74.1908 151.543 92.0817 151.543 92.0817L127.242 109.136L130.141 115.628L162.513 102.852L169.723 74.5047L163.767 54.7305Z" fill="#575A89"/>
<path opacity="0.2" d="M160.228 66.4297L161.63 95.8273L158.704 104.568L167.273 98.2748L160.228 66.4297Z" fill="black"/>
<path d="M155.147 118.604C155.147 118.604 151.073 129.589 150.446 137.123C149.819 144.656 149.192 150.619 149.192 150.619H168.312L172.074 144.969V150.619H194.328C194.328 150.619 200.597 130.217 198.09 127.706C195.582 125.195 171.76 114.523 171.76 114.523L155.147 118.604Z" fill="#2F2E41"/>
<path d="M179.126 42.8038C172.548 42.8038 167.215 37.4638 167.215 30.8765C167.215 24.2892 172.548 18.9492 179.126 18.9492C185.704 18.9492 191.037 24.2892 191.037 30.8765C191.037 37.4638 185.704 42.8038 179.126 42.8038Z" fill="#FFB8B8"/>
<path d="M188.216 35.8984L189.156 49.709L177.245 65.7167L171.29 50.6506C171.29 50.6506 176.618 47.198 173.484 39.9788L188.216 35.8984Z" fill="#FFB8B8"/>
<path d="M153.423 121.27C153.423 124.096 161.259 128.49 161.259 128.49V130.059L164.394 131.628L171.289 117.819L173.169 132.883C173.169 132.883 186.962 135.082 191.349 132.883C195.738 130.686 197.932 131.628 204.201 129.432C210.47 127.235 201.693 97.7295 201.693 97.7295L207.962 52.2177L194.266 45.3605L193.545 44.9982L191.661 44.6511L188.774 44.1172L179.125 50.6483L178.348 54.729L177.87 57.2404L175.364 54.4144L173.472 48.1808L160.005 55.6711L163.766 85.8019C163.766 85.8019 153.423 118.446 153.423 121.27Z" fill="#575A89"/>
<path d="M199.5 131.004C199.5 131.004 185.082 142.617 191.978 144.814C198.873 147.012 202.635 132.887 202.635 132.887L199.5 131.004Z" fill="#FFB8B8"/>
<path d="M204.828 52.8465L207.963 52.2188C207.963 52.2188 212.665 54.7298 212.978 59.7518C213.291 64.7738 217.366 99.9279 217.366 99.9279L204.201 135.396L193.544 131.316L203.888 98.0447L196.052 69.1681L204.828 52.8465Z" fill="#575A89"/>
<path d="M177.747 62.425C177.116 62.425 176.605 61.9127 176.605 61.2809C176.605 60.649 177.116 60.1367 177.747 60.1367C178.378 60.1367 178.89 60.649 178.89 61.2809C178.89 61.9127 178.378 62.425 177.747 62.425Z" fill="#2F2E41"/>
<path d="M177.747 69.8625C177.116 69.8625 176.605 69.3503 176.605 68.7184C176.605 68.0865 177.116 67.5742 177.747 67.5742C178.378 67.5742 178.89 68.0865 178.89 68.7184C178.89 69.3503 178.378 69.8625 177.747 69.8625Z" fill="#2F2E41"/>
<path d="M171.273 118.87C170.642 118.87 170.131 118.358 170.131 117.726C170.131 117.094 170.642 116.582 171.273 116.582C171.904 116.582 172.416 117.094 172.416 117.726C172.416 118.358 171.904 118.87 171.273 118.87Z" fill="#2F2E41"/>
<path d="M189.181 18.6572L191.383 17.7745C191.383 17.7745 186.78 12.699 180.374 13.1404L182.176 11.1543C182.176 11.1543 177.772 9.38898 173.769 14.0231C171.664 16.4591 169.23 19.3225 167.712 22.5482H165.354L166.338 24.7181L162.893 26.888L166.429 26.4982C166.218 27.6865 166.186 28.8996 166.333 30.0975C166.485 31.2957 167.095 32.388 168.036 33.1439C168.036 33.1439 170.766 27.484 170.766 26.6013V28.808C170.766 28.808 172.968 26.822 172.968 25.498L174.169 27.0427H182.176L180.975 25.0566L185.579 25.7186L183.777 23.2912L190.905 33.3148C190.905 33.3148 194.986 21.9672 189.181 18.6572Z" fill="#2F2E41"/>
<path opacity="0.2" d="M201.074 107.099L193.458 130.922L199.552 106.133L201.074 107.099Z" fill="black"/>
<path d="M163.237 54.3965L155.031 46.1328C154.628 45.7209 154.149 45.3928 153.619 45.1676C153.089 44.9423 152.52 44.8243 151.945 44.8204C151.37 44.8165 150.799 44.9267 150.267 45.1448C149.734 45.3628 149.25 45.6843 148.842 46.0907L97.3105 97.256L75.5218 75.267C74.7127 74.4453 73.6109 73.979 72.4585 73.9707C71.3062 73.9625 70.1978 74.4129 69.3771 75.2229L61.0827 83.4405C60.263 84.2602 59.799 85.3704 59.7911 86.5305C59.7832 87.6905 60.2322 88.8069 61.0407 89.6377L94.13 123.033C94.9484 123.854 96.0569 124.319 97.2153 124.327C98.3738 124.336 99.4888 123.886 100.319 123.077L163.191 60.5917C163.602 60.1891 163.93 59.709 164.155 59.179C164.38 58.649 164.498 58.0796 164.503 57.5037C164.507 56.9278 164.397 56.3567 164.18 55.8234C163.963 55.2901 163.642 54.8051 163.237 54.3965Z" fill="#3ACC6C"/>
</g>
<defs>
<clipPath id="clip0">
<path d="M0 0H230V151.425H0V0Z" fill="white"/>
</clipPath>
</defs>
</svg>
