<svg width="444" height="334" viewBox="0 0 444 334" fill="none" xmlns="http://www.w3.org/2000/svg">
<g clip-path="url(#clip0)">
<path opacity="0.4" d="M374.732 128.41C380.608 128.41 385.371 123.643 385.371 117.762C385.371 111.881 380.608 107.114 374.732 107.114C368.857 107.114 364.094 111.881 364.094 117.762C364.094 123.643 368.857 128.41 374.732 128.41Z" fill="#68AE29"/>
<path opacity="0.4" d="M150.422 69.828C158.798 69.828 165.588 63.0321 165.588 54.6489C165.588 46.2657 158.798 39.4697 150.422 39.4697C142.047 39.4697 135.256 46.2657 135.256 54.6489C135.256 63.0321 142.047 69.828 150.422 69.828Z" fill="#68AE29"/>
<path opacity="0.4" d="M122.354 72.5466C128.23 72.5466 132.993 67.7793 132.993 61.8986C132.993 56.0178 128.23 51.2505 122.354 51.2505C116.478 51.2505 111.715 56.0178 111.715 61.8986C111.715 67.7793 116.478 72.5466 122.354 72.5466Z" fill="#68AE29"/>
<path d="M383.643 236.835C375.237 246.046 374.931 259.464 374.931 259.464C374.931 259.464 388.255 257.947 396.661 248.736C405.068 239.525 405.373 226.107 405.373 226.107C405.373 226.107 392.049 227.623 383.643 236.835Z" fill="#3F3D56"/>
<path d="M388.391 239.485C385.848 251.698 375.155 259.798 375.155 259.798C375.155 259.798 368.587 248.097 371.13 235.884C373.674 223.671 384.367 215.571 384.367 215.571C384.367 215.571 390.935 227.272 388.391 239.485Z" fill="#68AE29"/>
<path d="M377.474 113.465V259.053L328.986 299.143H80.929V146.522L153.308 113.465H377.474Z" fill="#3F3D56"/>
<path opacity="0.1" d="M377.474 113.465V114.049L360.067 125.71L328.986 146.522H80.929L153.308 113.465H377.474Z" fill="black"/>
<path opacity="0.1" d="M377.474 113.465V259.053L328.986 299.143L329.338 146.17L360.067 125.71L377.193 113.465H377.474Z" fill="black"/>
<path d="M312.121 133.51H161.038L172.282 127.18H317.041L312.121 133.51Z" fill="#2F2E41"/>
<path d="M442.517 307.062C442.517 307.062 445.446 319.32 442.783 319.853C440.12 320.386 427.073 320.214 423.878 320.747C420.683 321.28 414.026 320.386 414.026 317.988C414.026 315.589 420.949 313.991 420.949 313.991C420.949 313.991 430.801 308.661 431.067 308.394C431.333 308.128 442.517 307.062 442.517 307.062Z" fill="#2F2E41"/>
<path d="M440.12 234.84C440.12 234.84 439.322 243.901 439.322 244.701C439.322 245.5 440.12 258.026 439.322 258.559C438.523 259.092 439.854 262.823 439.854 264.155C439.854 265.488 444.114 287.607 443.049 296.135C441.984 304.663 444.647 303.863 443.848 304.663C443.049 305.462 443.049 305.462 443.049 307.061C443.049 308.66 434.529 309.993 434.529 309.993L425.209 251.097L430.002 233.508L440.12 234.84Z" fill="#575A89"/>
<path opacity="0.1" d="M440.12 234.84C440.12 234.84 439.322 243.901 439.322 244.701C439.322 245.5 440.12 258.026 439.322 258.559C438.523 259.092 439.854 262.823 439.854 264.155C439.854 265.488 444.114 287.607 443.049 296.135C441.984 304.663 444.647 303.863 443.848 304.663C443.049 305.462 443.049 305.462 443.049 307.061C443.049 308.66 434.529 309.993 434.529 309.993L425.209 251.097L430.002 233.508L440.12 234.84Z" fill="black"/>
<path d="M438.789 310.793C438.789 310.793 441.452 320.387 438.789 320.92C436.126 321.453 423.079 320.309 419.884 320.842C416.689 321.375 410.032 321.453 410.032 319.055C410.032 316.656 416.955 315.057 416.955 315.057C416.955 315.057 426.807 309.727 427.073 309.461C427.34 309.194 438.789 310.793 438.789 310.793Z" fill="#2F2E41"/>
<path d="M442.517 224.181C442.517 224.181 445.712 231.909 441.984 235.907C438.256 239.904 433.996 247.899 433.996 248.432C433.996 248.965 441.452 301.998 440.387 305.463C439.321 308.927 439.588 311.059 439.854 311.592C440.12 312.125 437.191 315.057 433.996 315.057C430.801 315.057 426.008 312.658 425.476 310.526C424.943 308.394 426.274 290.006 426.008 286.541C425.742 283.077 424.411 278.013 423.878 276.947C423.345 275.881 420.417 274.815 419.884 271.617C419.351 268.419 415.091 227.645 416.423 226.313C417.754 224.98 442.517 224.181 442.517 224.181Z" fill="#575A89"/>
<path d="M422.28 162.886C427.28 162.886 431.333 158.829 431.333 153.825C431.333 148.82 427.28 144.764 422.28 144.764C417.281 144.764 413.227 148.82 413.227 153.825C413.227 158.829 417.281 162.886 422.28 162.886Z" fill="#FFB9B9"/>
<path d="M427.872 158.355C427.872 158.355 426.008 168.216 427.339 169.282C428.671 170.348 417.221 171.947 417.221 171.947C417.221 171.947 415.89 158.888 415.624 157.556C415.358 156.223 427.872 158.355 427.872 158.355Z" fill="#FFB9B9"/>
<path d="M415.624 171.148C415.624 171.148 418.819 161.82 431.866 164.485C431.866 164.485 434.262 165.285 433.464 166.084C432.665 166.884 431.866 166.884 432.931 167.683C433.996 168.483 435.327 167.683 434.529 168.483C433.73 169.282 441.718 174.079 441.185 183.14C440.653 192.201 443.049 204.993 441.185 207.125C439.321 209.257 442.517 218.584 441.984 220.45C441.452 222.315 445.179 224.714 443.582 225.513C441.984 226.313 413.227 231.11 412.429 225.513C411.63 219.917 412.162 223.914 411.363 222.582C410.565 221.249 410.298 218.851 410.831 215.919C411.363 212.988 412.695 205.792 412.162 203.127C411.63 200.462 412.162 178.077 413.76 175.412C415.357 172.747 415.624 171.148 415.624 171.148Z" fill="#68AE29"/>
<path d="M421.215 236.173C421.215 236.173 425.209 251.364 420.15 251.364C415.091 251.364 415.358 235.64 415.358 235.64L421.215 236.173Z" fill="#FFB9B9"/>
<path d="M418.286 153.825C418.286 154.598 419.405 155.088 421.138 155.2H421.141C421.876 155.242 422.613 155.228 423.346 155.158C424.453 155.056 424.911 156.098 425.1 157.474C425.409 159.741 424.978 162.921 425.476 163.419C426.163 164.107 431.171 163.416 432.737 161.857C432.98 161.639 433.143 161.344 433.197 161.021C433.362 160.069 433.831 159.196 434.534 158.534C435.458 157.524 436.773 156.405 438.256 154.625C440.919 151.427 438.256 151.16 437.458 148.762C436.659 146.363 435.327 145.564 435.327 143.965C435.327 142.366 429.203 141.033 424.144 141.3C419.085 141.566 420.15 147.962 420.15 147.962C420.15 147.962 419.849 148.735 419.49 149.732C419.004 150.982 418.609 152.267 418.308 153.575C418.295 153.658 418.288 153.741 418.286 153.825Z" fill="#2F2E41"/>
<path opacity="0.1" d="M419.351 175.145C419.351 175.145 428.405 174.612 429.203 187.936C430.002 201.261 429.736 213.787 429.736 214.053C429.736 214.32 426.008 239.637 422.547 239.637C419.085 239.637 416.423 239.104 415.624 237.772C414.825 236.439 417.754 217.251 417.754 217.251C417.754 217.251 419.085 196.997 416.955 190.601C414.825 184.205 414.559 175.944 419.351 175.145Z" fill="black"/>
<path d="M418.02 173.812C418.02 173.812 427.073 173.279 427.872 186.604C428.671 199.929 428.405 212.455 428.405 212.721C428.405 212.988 424.677 238.305 421.215 238.305C417.754 238.305 415.091 237.772 414.292 236.44C413.494 235.107 416.422 215.919 416.422 215.919C416.422 215.919 417.754 195.665 415.624 189.269C413.494 182.873 413.227 174.612 418.02 173.812Z" fill="#68AE29"/>
<path d="M267.9 43.5445C267.9 43.5445 263.955 32.3562 261.106 35.8662C258.256 39.3763 265.489 45.2995 265.489 45.2995L267.9 43.5445Z" fill="#A0616A"/>
<path d="M286.531 32.5757L284.158 33.4561C284.158 33.4561 283.024 38.4989 283.463 39.3764C283.901 40.2539 284.12 39.5958 283.463 41.3508C282.805 43.1058 280.832 47.7128 280.613 48.3709C280.394 49.0291 267.9 44.2027 267.9 41.7896C267.9 41.7896 265.27 44.8609 263.955 45.519C263.955 45.519 278.421 56.0492 280.394 57.3654C282.367 58.6817 283.463 58.0236 285.216 56.4879C286.97 54.9523 294.422 42.2283 294.422 42.2283L286.531 32.5757Z" fill="#575A89"/>
<path d="M280.175 110.455C280.175 110.455 280.394 112.868 280.832 113.088C281.271 113.307 284.559 118.792 280.832 119.888C277.106 120.985 274.914 120.547 274.038 120.985C273.161 121.424 257.818 122.302 257.599 119.888C257.379 117.475 265.051 117.036 265.051 117.036C265.051 117.036 272.065 112.43 273.161 110.016C274.257 107.603 280.175 110.455 280.175 110.455Z" fill="#2F2E41"/>
<path d="M324.67 114.842C324.67 114.842 329.93 123.837 328.615 124.934C327.3 126.031 314.492 130.028 312.615 130.199C310.204 130.418 308.45 128.444 310.423 127.347C312.395 126.25 316.56 121.643 316.56 120.107V116.159L324.67 114.842Z" fill="#2F2E41"/>
<path d="M329.711 56.0493C329.711 56.0493 334.314 61.7532 327.081 70.967L315.026 86.3235C315.026 86.3235 322.478 98.1699 322.697 104.313C322.916 110.455 324.451 109.139 324.889 111.771C325.327 114.404 327.3 113.088 325.766 115.062C324.232 117.036 318.533 118.792 316.779 117.256C316.176 116.704 315.705 116.022 315.401 115.263C315.098 114.503 314.969 113.685 315.026 112.868C315.026 111.991 311.957 106.945 311.738 105.409C311.519 103.874 303.409 91.3692 303.409 91.3692C303.409 91.3692 300.778 83.9104 303.847 79.7422C306.916 75.574 308.944 69.6623 308.944 69.6623C308.944 69.6623 299.902 80.6197 293.545 83.2522C293.545 83.2522 291.134 83.691 291.573 84.7879C292.011 85.8848 291.573 86.5429 290.915 87.6398C290.258 88.7367 285.655 101.461 284.12 104.751C282.586 108.042 283.244 110.016 281.49 111.113C279.737 112.21 271.846 111.333 271.846 110.236C271.846 109.139 272.942 106.287 273.599 104.751C274.257 103.216 279.517 85.446 279.079 82.3747C278.641 79.3034 279.298 75.1352 282.586 73.3802C285.874 71.6252 302.532 57.3656 303.409 57.3656C304.286 57.3656 329.711 56.0493 329.711 56.0493Z" fill="#2F2E41"/>
<path d="M285.655 21.6065C290.739 21.6065 294.86 17.4813 294.86 12.3926C294.86 7.30391 290.739 3.17871 285.655 3.17871C280.57 3.17871 276.449 7.30391 276.449 12.3926C276.449 17.4813 280.57 21.6065 285.655 21.6065Z" fill="#A0616A"/>
<path d="M293.107 13.27C293.107 13.27 295.956 18.3157 299.463 18.9739C302.97 19.632 290.257 29.7234 290.257 29.7234C290.257 29.7234 287.189 20.0708 284.559 19.632C281.928 19.1933 293.107 13.27 293.107 13.27Z" fill="#A0616A"/>
<path d="M284.12 33.8918C284.12 36.7437 292.669 44.8607 292.669 44.8607L300.778 51.6614C300.778 51.6614 300.998 54.0745 301.874 54.2939C302.751 54.5133 303.847 54.5133 302.97 55.8296C302.094 57.1458 299.902 59.9977 301.874 60.4365C302.469 60.527 303.068 60.5842 303.67 60.6076C304.196 60.6383 304.814 60.6669 305.509 60.6932C307.131 60.7502 309.16 60.7875 311.359 60.7722C311.983 60.77 312.619 60.7626 313.266 60.7502C321.553 60.5857 331.153 59.6314 330.369 56.4877C329.054 51.2226 329.93 49.4676 327.081 46.6157C324.232 43.7638 319.629 33.8917 319.629 33.8917C319.629 33.8917 310.423 18.3159 302.751 18.3159L301.158 17.8969C300.417 17.7016 299.634 17.7445 298.919 18.0193C298.205 18.2941 297.594 18.787 297.175 19.4281C295.636 21.7733 293.21 25.2965 291.792 26.4329C289.6 28.1879 289.258 26.9287 289.258 26.9287C289.258 26.9287 284.12 31.0398 284.12 33.8918Z" fill="#575A89"/>
<path d="M303.628 67.2378C303.628 67.2378 297.271 77.1098 301.217 78.8648C305.162 80.6199 307.354 68.5541 307.354 68.5541L303.628 67.2378Z" fill="#A0616A"/>
<path d="M291.673 11.3522C291.32 11.3076 291.208 10.8614 291.148 10.51C290.83 8.62807 289.429 6.84354 287.546 6.53974C286.826 6.44393 286.095 6.50295 285.4 6.71287C284.404 6.98631 283.469 7.44673 282.646 8.06961C282.243 8.43838 281.776 8.73138 281.269 8.93456C280.924 9.03609 279.457 9.68874 279.114 9.79917C278.361 10.042 277.738 10.8313 276.962 10.675C276.219 10.5255 275.937 9.62821 275.818 8.87974C275.546 7.17455 276.521 4.63026 277.491 3.20197C278.226 2.11809 279.472 1.49431 280.716 1.0885C282.175 0.645424 283.673 0.347412 285.19 0.198788C287.238 -0.0432546 289.359 -0.171671 291.321 0.46182C293.283 1.09531 295.07 2.64497 295.436 4.67583C295.513 5.09888 295.527 5.53219 295.621 5.95176C295.849 6.9753 296.525 7.83565 296.92 8.80709C297.205 9.52054 297.337 10.2858 297.308 11.0535C297.279 11.8212 297.09 12.5744 296.753 13.2644C296.206 14.3645 295.255 15.4216 295.461 16.633L293.769 15.2981C293.525 15.1591 293.335 14.9404 293.233 14.6785C293.13 14.4166 293.12 14.1273 293.205 13.859L293.45 11.7393C293.536 11.3552 293.497 10.9541 293.341 10.5932C292.589 9.27878 292.262 11.4266 291.673 11.3522Z" fill="#2F2E41"/>
<path opacity="0.1" d="M307.573 52.1003L305.509 60.6934C307.591 60.768 310.346 60.8074 313.266 60.7504C314.002 58.5391 314.706 56.2334 315.245 54.0747C317.218 46.1771 313.93 34.1113 312.176 28.4075C310.423 22.7036 306.039 21.168 306.039 21.168C304.242 21.8006 302.544 22.687 300.998 23.8005C298.148 25.7749 307.573 52.1003 307.573 52.1003Z" fill="black"/>
<path opacity="0.1" d="M305.82 51.6615L303.67 60.6077C304.196 60.6385 304.814 60.667 305.509 60.6933C307.131 60.7503 309.16 60.7876 311.359 60.7723C312.15 58.4227 312.915 55.9438 313.491 53.6359C315.464 45.7383 312.176 33.6725 310.423 27.9686C308.669 22.2648 304.833 28.5171 304.833 28.5171C304.833 28.5171 306.368 24.7876 303.518 26.762C300.669 28.7364 305.82 51.6615 305.82 51.6615Z" fill="black"/>
<path d="M305.162 20.7295C305.162 20.7295 309.546 22.2651 311.3 27.969C313.053 33.6728 316.341 45.7386 314.368 53.6362C312.395 61.5338 308.231 71.4059 308.231 71.4059C308.231 71.4059 304.066 68.3346 302.532 68.9927L306.697 51.6618C306.697 51.6618 297.272 25.3364 300.121 23.362C301.667 22.2486 303.365 21.3621 305.162 20.7295Z" fill="#575A89"/>
<path d="M308.43 130.767L247.788 4.28809L146.389 52.9895L183.681 130.767H308.43Z" fill="#F2F2F2"/>
<path d="M227.266 53.9343L173.41 79.8013L175.014 83.147L228.87 57.28L227.266 53.9343Z" fill="#3F3D56"/>
<path d="M241.525 83.674L187.669 109.541L189.273 112.887L243.13 87.0197L241.525 83.674Z" fill="#3F3D56"/>
<path d="M251.32 36.4358L237.949 42.8579L244.366 56.2408L257.737 49.8186L251.32 36.4358Z" fill="#3F3D56"/>
<path d="M265.579 66.1755L252.208 72.5977L258.625 85.9805L271.996 79.5583L265.579 66.1755Z" fill="#3F3D56"/>
<path d="M252.242 27.166L246.735 42.8475L239.311 40.236L238.296 43.1287L248.6 46.753L255.131 28.1827L252.242 27.166Z" fill="#57B894"/>
<path d="M266.5 56.9058L260.994 72.5872L253.571 69.9762L252.555 72.8685L262.858 76.4928L269.391 57.9225L266.5 56.9058Z" fill="#57B894"/>
<path d="M5.85238 276.338L33.25 270.48L27.3977 243.059L2.73385e-05 248.916L5.85238 276.338Z" fill="#F2F2F2"/>
<path d="M32.488 235.732C32.488 235.732 22.4248 242.926 25.7792 245.804C29.1336 248.682 35.8424 237.171 35.8424 237.171L32.488 235.732Z" fill="#FFB9B9"/>
<path d="M78.9705 246.763C78.9705 246.763 77.0537 270.744 76.5745 274.101C76.0953 277.459 75.6161 307.675 74.6577 311.032C73.6993 314.389 72.7409 322.543 72.7409 322.543H66.9905C66.9905 322.543 67.4697 307.675 66.0321 301.919C64.5945 296.164 65.0737 280.336 65.0737 280.336C65.0737 280.336 62.1985 252.039 63.6361 248.202C65.0737 244.365 78.9705 246.763 78.9705 246.763Z" fill="#FFB9B9"/>
<path d="M71.3033 321.104C71.3033 321.104 73.6993 322.542 73.6993 323.502C73.6993 324.461 73.2201 326.859 73.6993 327.818C74.1785 328.777 77.5329 332.614 75.6161 333.573C73.6993 334.533 65.0737 333.573 65.0737 333.573C65.0737 333.573 65.5529 326.859 66.0321 326.379C66.5113 325.9 65.5529 321.104 65.5529 321.104H71.3033Z" fill="#2F2E41"/>
<path d="M42.3384 246.176C42.3384 246.176 41.7296 270.225 41.854 273.614C41.9785 277.004 39.2862 307.103 39.8872 310.542C40.4882 313.982 40.5862 322.191 40.5862 322.191L46.3048 322.795C46.3048 322.795 47.3876 307.959 49.4208 302.386C51.4541 296.814 52.6374 281.023 52.6374 281.023C52.6374 281.023 58.4645 253.184 57.4372 249.217C56.4099 245.251 42.3384 246.176 42.3384 246.176Z" fill="#FFB9B9"/>
<path d="M42.1668 320.911C42.1668 320.911 39.6331 322.09 39.5325 323.044C39.4319 323.998 39.657 326.433 39.0798 327.337C38.5027 328.241 34.7644 331.704 36.57 332.859C38.3756 334.014 47.0542 333.967 47.0542 333.967C47.0542 333.967 47.2818 327.239 46.8556 326.712C46.4294 326.184 47.8855 321.515 47.8855 321.515L42.1668 320.911Z" fill="#2F2E41"/>
<path d="M72.1088 210.565C72.1088 210.565 75.8667 211.275 77.2759 223.345C78.6851 235.414 83.8523 265.942 79.6246 268.072C75.397 270.201 62.714 274.461 62.2443 273.041C61.7746 271.621 60.8351 268.072 60.8351 268.072C60.8351 268.072 62.2443 274.461 60.3654 274.461C58.4864 274.461 40.1666 270.201 40.6363 268.072C41.1061 265.942 42.0455 250.323 42.0455 250.323C42.0455 250.323 44.864 224.054 47.6824 219.795C48.4981 218.611 49.1314 217.171 49.5373 215.576C49.9432 213.981 50.1118 212.27 50.0311 210.565H72.1088Z" fill="#2F2E41"/>
<path d="M79.4497 206.955C79.4497 206.955 73.2201 205.516 72.2617 207.435C71.3033 209.353 74.6577 212.231 76.0953 212.231C77.5329 212.231 79.9289 210.792 79.9289 210.792L79.4497 206.955Z" fill="#FFB9B9"/>
<path d="M66.5113 166.187C71.2751 166.187 75.1369 162.322 75.1369 157.554C75.1369 152.786 71.2751 148.921 66.5113 148.921C61.7475 148.921 57.8857 152.786 57.8857 157.554C57.8857 162.322 61.7475 166.187 66.5113 166.187Z" fill="#FFB9B9"/>
<path d="M65.0737 163.789C65.0737 163.789 63.6361 170.504 64.5945 170.504C65.5529 170.504 57.4065 174.82 57.4065 174.82L51.1769 173.861L49.2601 170.983C49.2601 170.983 59.3233 164.269 59.3233 160.432C59.3233 156.595 65.0737 163.789 65.0737 163.789Z" fill="#FFB9B9"/>
<path d="M60.7609 170.504C60.7609 170.504 62.1985 169.545 62.6777 169.545H66.5113C66.9905 169.545 73.2201 170.984 73.2201 170.984L77.0537 192.567C77.0537 192.567 70.3449 203.598 75.1369 212.231C75.1369 212.231 73.6993 211.272 66.9905 211.751C60.2817 212.231 48.3017 213.67 47.8225 213.67C47.3433 213.67 47.3433 209.833 47.8225 208.874C48.3017 207.914 47.3433 208.394 47.3433 205.996C47.3433 203.598 45.9057 199.281 45.9057 199.281L39.1969 174.821C39.1969 174.821 47.8225 170.025 49.2601 170.504C50.6977 170.984 55.0105 172.423 55.9689 171.943C56.9273 171.463 60.7609 170.504 60.7609 170.504Z" fill="#68AE29"/>
<path d="M71.7825 171.463L73.2201 170.984C73.2201 170.984 76.0953 170.504 79.4497 173.382C82.8041 176.259 95.2633 184.892 95.2633 184.892C95.2633 184.892 100.055 188.729 98.6177 193.046C97.1801 197.363 94.7841 207.914 87.5961 207.435C87.5961 207.435 83.2833 213.19 80.8873 212.231C78.4913 211.271 76.5745 207.435 78.0121 206.955C79.4497 206.475 83.2833 201.679 83.2833 201.679L78.4913 192.566H77.0537L71.7825 189.689L71.7825 171.463Z" fill="#68AE29"/>
<path d="M43.0305 174.341L39.1969 174.82C39.1969 174.82 35.8424 176.259 36.3216 182.494C36.8009 188.729 33.4464 217.027 34.8841 220.384C34.8841 220.384 30.0921 236.691 31.0505 237.171C32.0088 237.65 37.7593 240.528 37.2801 238.609C36.8009 236.691 42.5513 223.262 42.5513 223.262C42.5513 223.262 49.2601 216.067 46.3849 205.995V197.842L43.0305 174.341Z" fill="#68AE29"/>
<path d="M73.6901 165.901L67.5982 167.229L66.8153 164.227L67.1163 167.334L57.2888 169.477L56.8566 167.82L57.0227 169.535L50.7283 170.908L49.3818 157.971C47.9975 152.662 53.0498 147.004 58.3538 145.619L60.7067 145.004C64.6024 143.986 71.6835 144.912 72.7002 148.811C70.9207 155.608 67.8871 163.061 73.6901 165.901Z" fill="#2F2E41"/>
</g>
<defs>
<clipPath id="clip0">
<rect width="444" height="334" fill="white"/>
</clipPath>
</defs>
</svg>
